<?xml version="1.0" encoding="utf-8"?>
<!-- Generator: Adobe Illustrator 22.0.1, SVG Export Plug-In . SVG Version: 6.00 Build 0)  -->
<svg version="1.1" id="Layer_1" xmlns="http://www.w3.org/2000/svg"  x="0px" y="0px"
	 viewBox="0 0 356 84" style="enable-background:new 0 0 356 84;" xml:space="preserve">
<style type="text/css">
	.st0{fill:#E9242A;}
	.st1{fill:#F38020;}
	.st2{fill:#7D7D7D;}
</style>
<path class="st0" d="M144.5,41.8v8.7H116v-0.1V0.5h12.3v41.3H144.5z"/>
<path class="st0" d="M163.1,50.6h-11.7V0.5h11.7V50.6z"/>
<path class="st0" d="M201.2,25.6l13.8,25h-13.1l-9.3-18l-9.3,18h-13.2l13.7-25L170.1,0.5h13.2l9.3,18l9.3-18H215L201.2,25.6z"/>
<path class="st0" d="M233.7,50.6H222V0.5h11.7V50.6z"/>
<path class="st1" d="M281,38.8C280.6,46,276.9,51,265.7,51h-0.2h-0.2c-11.3,0-14.9-5.1-15.3-12.2c0-0.5,0.1-7.1,0.1-8.5
	c0.2-1.8,1-3.7,5-6.1c-4-2.6-4.2-4.5-4.5-6.2v-5.7C251,5,254.5,0,265.4,0h0.2h0.2c11.1,0,14.4,5,14.8,12.2c0,0.3,0.1,4.1-0.2,5.7
	c-0.2,1.8-0.8,3.9-4.4,6.2c3.5,1.9,4.6,4.3,4.9,6.1C281.2,31.7,281,38.3,281,38.8z M270.7,30.7c-0.4-1.1-1.9-2.5-3.7-2.7
	c-0.4-0.2-2.3-0.2-2.7,0c-2.1,0.2-3.5,1.7-3.6,2.7c-0.8,2.5-0.4,8.2-0.4,8.6c0.4,2.6,1.5,4.3,3.9,4.5c0.4,0.1,2.5,0,2.9,0
	c2.2,0,3.4-2.3,3.8-4.5C270.9,38.9,271.5,33.2,270.7,30.7z M261.1,17.6c0.4,1.8,1.3,2.2,3.2,2.7c0.4,0.1,2.5,0.1,2.9,0
	c1.6-0.5,2.8-1.1,3.2-2.7c0.6-2.5,0.2-5.6,0.2-5.9c-0.2-2.7-1.2-4.6-4.7-4.5h-0.5c-3-0.1-4.2,1.3-4.6,4.5
	C260.8,12,260.3,15,261.1,17.6z"/>
<path class="st1" d="M318.9,38.8C318.6,46,314.8,51,303.7,51h-0.2h-0.2c-11.3,0-14.9-5.1-15.3-12.2c0-0.5,0.1-7.1,0.1-8.5
	c0.2-1.8,1-3.7,5-6.1c-4-2.6-4.2-4.5-4.5-6.2v-5.7C288.9,5,292.4,0,303.4,0h0.2h0.2c11.1,0,14.4,5,14.8,12.2c0,0.3,0.1,4.1-0.2,5.7
	c-0.2,1.8-0.8,3.9-4.4,6.2c3.5,1.9,4.6,4.3,4.9,6.1C319.1,31.7,318.9,38.3,318.9,38.8z M308.6,30.7c-0.4-1.1-1.9-2.5-3.7-2.7
	c-0.4-0.2-2.3-0.2-2.7,0c-2.1,0.2-3.5,1.7-3.6,2.7c-0.8,2.5-0.4,8.2-0.4,8.6c0.4,2.6,1.5,4.3,3.9,4.5c0.4,0.1,2.5,0,2.9,0
	c2.2,0,3.4-2.3,3.8-4.5C308.8,38.9,309.4,33.2,308.6,30.7z M299,17.6c0.4,1.8,1.3,2.2,3.2,2.7c0.4,0.1,2.5,0.1,2.9,0
	c1.6-0.5,2.8-1.1,3.2-2.7c0.6-2.5,0.2-5.6,0.2-5.9c-0.2-2.7-1.2-4.6-4.7-4.5h-0.5c-3-0.1-4.2,1.3-4.6,4.5
	C298.7,12,298.2,15,299,17.6z"/>
<path class="st0" d="M46.2,0c-8.7,0-16.1,5.2-19.3,12.7L0,84h28c9-0.2,16.6-6.1,19.4-14.2L73.7,0H46.2z"/>
<path class="st1" d="M73.6,52.5c-8.7,0-16.1,5.2-19.3,12.7L47.4,84h26.9c9-0.2,16.6-6.1,19.4-14.2l6.3-17.3H73.6z"/>
<g>
	<path class="st2" d="M126.2,78.5c-0.1,1.6-0.5,2.9-1.4,3.7s-2.1,1.3-3.7,1.3c-0.8,0-1.5-0.1-2.2-0.4c-0.6-0.3-1.2-0.7-1.6-1.2
		c-0.4-0.5-0.8-1.2-1-1.9c-0.2-0.8-0.3-1.7-0.3-2.7v-2.5c0-1,0.1-1.9,0.4-2.7c0.2-0.8,0.6-1.4,1-1.9c0.4-0.5,1-0.9,1.6-1.2
		c0.6-0.3,1.4-0.4,2.2-0.4c1.6,0,2.8,0.4,3.6,1.3c0.8,0.9,1.3,2.1,1.4,3.8h-3c0-0.5-0.1-0.9-0.1-1.3c-0.1-0.3-0.2-0.6-0.4-0.8
		c-0.2-0.2-0.4-0.4-0.6-0.4c-0.3-0.1-0.6-0.1-1-0.1c-0.4,0-0.7,0.1-1,0.2c-0.3,0.1-0.5,0.3-0.7,0.6c-0.2,0.3-0.3,0.7-0.4,1.2
		c-0.1,0.5-0.1,1.1-0.1,1.8v2.5c0,0.7,0,1.2,0.1,1.7c0.1,0.5,0.2,0.9,0.4,1.2c0.2,0.3,0.4,0.5,0.7,0.7c0.3,0.1,0.6,0.2,1,0.2
		c0.4,0,0.7,0,0.9-0.1c0.3-0.1,0.5-0.2,0.6-0.4c0.2-0.2,0.3-0.5,0.4-0.8c0.1-0.3,0.1-0.8,0.2-1.3H126.2z"/>
	<path class="st2" d="M140.1,83.3h-2.9v-6.2h-4.4v6.2h-3V68.9h3v5.8h4.4v-5.8h2.9V83.3z"/>
	<path class="st2" d="M154.6,77.4c0,1-0.1,1.9-0.4,2.7c-0.3,0.8-0.6,1.4-1.1,1.9c-0.5,0.5-1,0.9-1.7,1.1c-0.6,0.3-1.4,0.4-2.1,0.4
		c-0.8,0-1.5-0.1-2.2-0.4c-0.7-0.3-1.2-0.6-1.7-1.1c-0.5-0.5-0.8-1.1-1.1-1.9c-0.3-0.8-0.4-1.7-0.4-2.7V75c0-1,0.1-1.9,0.4-2.7
		c0.3-0.8,0.6-1.4,1.1-2c0.5-0.5,1-0.9,1.7-1.2c0.7-0.3,1.4-0.4,2.2-0.4c0.8,0,1.6,0.1,2.2,0.4c0.7,0.3,1.2,0.7,1.7,1.3
		c0.3-0.2,0.4-0.5,0.5-1c0.1-0.4,0.2-1,0.2-1.7h1.9c0,1-0.1,1.9-0.4,2.6c-0.3,0.7-0.7,1.2-1.3,1.5c0.2,0.4,0.3,0.9,0.4,1.4
		c0.1,0.5,0.1,1.1,0.1,1.7V77.4z M151.6,75c0-0.7-0.1-1.3-0.1-1.8c-0.1-0.5-0.2-0.9-0.4-1.2c-0.2-0.3-0.4-0.5-0.7-0.7
		c-0.3-0.1-0.6-0.2-1-0.2c-0.4,0-0.7,0.1-1,0.2c-0.3,0.1-0.5,0.4-0.7,0.7c-0.2,0.3-0.3,0.7-0.4,1.2c-0.1,0.5-0.2,1.1-0.2,1.8v2.4
		c0,0.7,0.1,1.2,0.2,1.7c0.1,0.5,0.3,0.8,0.4,1.1c0.2,0.3,0.4,0.5,0.7,0.7c0.3,0.1,0.6,0.2,1,0.2c0.4,0,0.7-0.1,1-0.2
		c0.3-0.1,0.5-0.4,0.7-0.7c0.2-0.3,0.3-0.7,0.4-1.1c0.1-0.5,0.1-1,0.1-1.7V75z"/>
	<path class="st2" d="M161.9,83.3h-3V68.9h3V83.3z"/>
	<path class="st2" d="M171,83.3V68.9h3.9c0.8,0,1.6,0.1,2.3,0.4c0.7,0.3,1.3,0.7,1.8,1.2c0.5,0.5,0.9,1.2,1.1,1.9
		c0.3,0.8,0.4,1.6,0.4,2.6v2.2c0,1-0.1,1.8-0.4,2.6c-0.3,0.8-0.6,1.4-1.1,1.9c-0.5,0.5-1.1,0.9-1.8,1.2c-0.7,0.3-1.5,0.4-2.3,0.4
		H171z M173.9,71.4v9.6h0.9c0.5,0,1-0.1,1.3-0.2c0.3-0.1,0.6-0.4,0.8-0.6c0.2-0.3,0.4-0.7,0.4-1.1c0.1-0.5,0.1-1,0.1-1.7V75
		c0-0.7,0-1.2-0.1-1.7c-0.1-0.5-0.2-0.8-0.4-1.1c-0.2-0.3-0.5-0.5-0.8-0.6c-0.3-0.1-0.8-0.2-1.3-0.2H173.9z"/>
	<path class="st2" d="M192,77.1h-4.6v3.8h5.5v2.4h-8.4V68.9h8.4v2.4h-5.4v3.4h4.6V77.1z M192.1,68.2h-2l-1.3-1.2l-1.3,1.2h-1.9
		l2.5-2.2h1.5L192.1,68.2z M191.1,63.9c0,0.2,0,0.4-0.1,0.6c-0.1,0.2-0.1,0.3-0.2,0.5c-0.1,0.1-0.2,0.3-0.4,0.4
		c-0.1,0.1-0.3,0.1-0.5,0.1c-0.2,0-0.3,0-0.5-0.1c-0.2-0.1-0.3-0.1-0.4-0.2c-0.1-0.1-0.3-0.2-0.4-0.2c-0.1-0.1-0.3-0.1-0.4-0.1
		c-0.1,0-0.2,0.1-0.3,0.2c-0.1,0.1-0.1,0.3-0.1,0.5l-0.9-0.3c0-0.2,0-0.4,0.1-0.6c0.1-0.2,0.1-0.4,0.2-0.5c0.1-0.1,0.2-0.3,0.4-0.4
		c0.1-0.1,0.3-0.1,0.5-0.1c0.1,0,0.3,0,0.4,0.1c0.2,0.1,0.3,0.1,0.5,0.2c0.2,0.1,0.3,0.1,0.5,0.2c0.2,0.1,0.3,0.1,0.4,0.1
		c0.1,0,0.1,0,0.2-0.1c0,0,0.1-0.1,0.1-0.2c0-0.1,0.1-0.1,0.1-0.2c0-0.1,0-0.2,0-0.3L191.1,63.9z"/>
	<path class="st2" d="M206.2,78.3h-4.9V76h4.9V78.3z"/>
	<path class="st2" d="M224.2,71.4h-3.6v12h-3v-12H214v-2.4h10.2V71.4z"/>
	<path class="st2" d="M232.2,78.1h-1.5v5.3h-3V68.9h4.7c0.7,0,1.4,0.1,2,0.3c0.6,0.2,1.1,0.5,1.5,0.8c0.4,0.4,0.7,0.8,0.9,1.4
		c0.2,0.5,0.3,1.2,0.3,1.9c0,0.5,0,1-0.1,1.4c-0.1,0.4-0.2,0.8-0.4,1.1c-0.2,0.3-0.4,0.6-0.7,0.9c-0.3,0.2-0.6,0.5-0.9,0.6l2.6,5.9
		v0.1h-3.2L232.2,78.1z M230.7,75.6h1.7c0.6,0,1-0.2,1.3-0.6c0.3-0.4,0.4-0.9,0.4-1.5c0-0.3,0-0.6-0.1-0.9c-0.1-0.3-0.2-0.5-0.3-0.7
		c-0.1-0.2-0.3-0.3-0.5-0.4c-0.2-0.1-0.5-0.2-0.8-0.2h-1.8V75.6z"/>
	<path class="st2" d="M250.6,68.9v9.9c0,0.8-0.1,1.6-0.4,2.1c-0.2,0.6-0.6,1.1-1,1.5c-0.4,0.4-0.9,0.7-1.5,0.8
		c-0.6,0.2-1.2,0.3-1.9,0.3c-0.7,0-1.4-0.1-2-0.3c-0.6-0.2-1.1-0.5-1.5-0.8c-0.4-0.4-0.8-0.9-1-1.5c-0.2-0.6-0.4-1.3-0.4-2.1v-9.9h3
		v9.9c0,0.5,0,0.9,0.1,1.2c0.1,0.3,0.2,0.5,0.4,0.7c0.2,0.2,0.4,0.3,0.6,0.3c0.2,0.1,0.5,0.1,0.8,0.1c0.3,0,0.6,0,0.8-0.1
		c0.2-0.1,0.4-0.2,0.6-0.3c0.2-0.2,0.3-0.4,0.4-0.7c0.1-0.3,0.1-0.7,0.1-1.2v-9.9H250.6z M246.2,65.1h3.2l-2.8,3.1h-2.4L246.2,65.1z
		"/>
	<path class="st2" d="M264.9,83.3h-3l-4.3-9.4v9.4h-3V68.9h3l4.3,9.5v-9.5h2.9V83.3z"/>
	<path class="st2" d="M279.1,81.7c-0.2,0.2-0.4,0.4-0.6,0.6c-0.3,0.2-0.6,0.4-1,0.6c-0.4,0.2-0.9,0.3-1.4,0.5
		c-0.5,0.1-1.1,0.2-1.8,0.2c-0.8,0-1.6-0.1-2.2-0.4c-0.7-0.3-1.2-0.6-1.7-1.1c-0.5-0.5-0.8-1.1-1.1-1.9c-0.3-0.8-0.4-1.7-0.4-2.7
		v-2.4c0-1,0.1-2,0.4-2.7c0.2-0.8,0.6-1.4,1-1.9c0.4-0.5,1-0.9,1.6-1.1c0.6-0.3,1.4-0.4,2.2-0.4c0.8,0,1.5,0.1,2.2,0.3
		c0.6,0.2,1.1,0.5,1.5,0.9c0.4,0.4,0.7,0.9,0.9,1.5c0.2,0.6,0.4,1.3,0.4,2.1h-2.9c0-0.5-0.1-0.8-0.2-1.1c-0.1-0.3-0.2-0.5-0.4-0.7
		c-0.2-0.2-0.4-0.3-0.6-0.4c-0.2-0.1-0.5-0.1-0.9-0.1c-0.4,0-0.7,0.1-1,0.2c-0.3,0.1-0.5,0.4-0.7,0.7c-0.2,0.3-0.3,0.7-0.4,1.2
		c-0.1,0.5-0.1,1.1-0.1,1.7v2.5c0,0.7,0.1,1.3,0.2,1.7c0.1,0.5,0.3,0.9,0.5,1.2c0.2,0.3,0.5,0.5,0.8,0.7c0.3,0.1,0.7,0.2,1.1,0.2
		c0.3,0,0.5,0,0.7-0.1c0.2,0,0.3-0.1,0.5-0.1c0.1-0.1,0.2-0.1,0.3-0.2c0.1-0.1,0.2-0.1,0.2-0.1V78h-2.1v-2.2h5V81.7z"/>
	<path class="st2" d="M298.1,83.3h-3l-4.3-9.4v9.4h-3V68.9h3l4.3,9.5v-9.5h2.9V83.3z"/>
	<path class="st2" d="M312.6,83.3h-2.9v-6.2h-4.4v6.2h-3V68.9h3v5.8h4.4v-5.8h2.9V83.3z"/>
	<path class="st2" d="M324,80.4h-4l-0.8,2.9h-3.1l4.6-14.4h2.7l4.6,14.4h-3.2L324,80.4z M320.6,78h2.7l-1.4-5.1L320.6,78z"/>
	<path class="st2" d="M341.4,83.3h-3l-4.3-9.4v9.4h-3V68.9h3l4.3,9.5v-9.5h2.9V83.3z"/>
	<path class="st2" d="M356,83.3H353v-6.2h-4.4v6.2h-3V68.9h3v5.8h4.4v-5.8h2.9V83.3z"/>
</g>
</svg>
